<svg width="24" height="24" viewBox="0 0 24 24" fill="none" xmlns="http://www.w3.org/2000/svg">
<path d="M10.0002 6.52805C9.53536 6.52805 9.15771 6.15167 9.15771 5.68561V4.84317C9.15771 4.37838 9.53536 4.00073 10.0002 4.00073C10.4649 4.00073 10.8413 4.37838 10.8413 4.84317V5.68561C10.8413 6.15041 10.4649 6.52805 10.0002 6.52805Z" fill="#9689A8"/>
<path d="M12.9462 6.52898C12.7302 6.52898 12.5155 6.44689 12.3513 6.28269C12.0229 5.95431 12.0229 5.42131 12.3513 5.09166L13.1937 4.24922C13.5221 3.92083 14.0551 3.92083 14.3847 4.24922C14.7131 4.57761 14.7131 5.1106 14.3847 5.44026L13.5423 6.28269C13.3769 6.44689 13.1609 6.52898 12.9462 6.52898Z" fill="#9689A8"/>
<path d="M7.05227 6.52801C6.83629 6.52801 6.62158 6.44591 6.45738 6.28172L5.61494 5.43928C5.28656 5.11089 5.28656 4.57789 5.61494 4.24824C5.94333 3.91986 6.47633 3.91986 6.80598 4.24824L7.64842 5.09068C7.9768 5.41907 7.9768 5.95207 7.64842 6.28172C7.48296 6.44591 7.26825 6.52801 7.05227 6.52801Z" fill="#9689A8"/>
<path d="M22.1246 8.52543C22.0109 8.33092 21.8037 8.21094 21.5777 8.21094H7.89528C4.64551 8.21094 2.00073 10.8557 2.00073 14.1055C2.00073 17.3553 4.64551 20 7.89528 20C11.1451 20 13.7898 17.3553 13.7898 14.1055V12.6315C13.7898 12.5153 13.8846 12.4206 14.0008 12.4206H18.4289C19.5593 12.4206 20.6102 11.8118 21.171 10.8292L22.1271 9.15442C22.2382 8.95991 22.237 8.71994 22.1246 8.52543ZM7.89528 17.4727C6.03484 17.4727 4.52679 15.9647 4.52679 14.1042C4.52679 12.245 6.03484 10.737 7.89528 10.737C9.75572 10.737 11.2638 12.245 11.2638 14.1055C11.2638 15.9647 9.75572 17.4727 7.89528 17.4727Z" fill="#9689A8"/>
</svg>
