<svg width="24" height="24" viewBox="0 0 24 24" fill="none" xmlns="http://www.w3.org/2000/svg">
<path d="M9.50054 7.69193C9.04061 7.69193 8.66675 7.3144 8.66675 6.84719V6.00369C8.66675 4.60671 9.78803 3.4707 11.1669 3.4707H20.1262C20.5861 3.4707 20.96 3.84824 20.96 4.31544C20.96 4.78265 20.5861 5.15895 20.1262 5.15895H11.1669C10.707 5.15895 10.3331 5.53772 10.3331 6.00369V6.84843C10.3343 7.3144 9.96047 7.69193 9.50054 7.69193Z" fill="#29AFBD"/>
<path d="M14.0841 21.2016H11.1676C9.78877 21.2016 8.66748 20.0656 8.66748 18.6686V16.9804C8.66626 16.5132 9.04013 16.1356 9.50006 16.1356C9.95999 16.1356 10.3338 16.5132 10.3338 16.9804V18.6686C10.3338 19.1346 10.7077 19.5133 11.1676 19.5133H14.0841C14.544 19.5133 14.9179 19.8909 14.9179 20.3581C14.9167 20.8241 14.544 21.2016 14.0841 21.2016Z" fill="#29AFBD"/>
<path d="M7.58903 15.8886C7.35037 16.1307 6.99268 16.2027 6.68016 16.0722C6.36917 15.9418 6.16652 15.6341 6.16652 15.2921V12.7591H2.83379C2.37264 12.7579 2 12.3804 2 11.9144C2 11.4484 2.37264 11.0697 2.83379 11.0697H6.16774V8.53668C6.16774 8.1947 6.37039 7.88705 6.68169 7.75656C6.99268 7.62608 7.35159 7.69812 7.59025 7.94023L10.9242 11.318C11.2492 11.6473 11.2492 12.1816 10.9242 12.5121L7.58903 15.8886Z" fill="#29AFBD"/>
<path d="M19.8038 3.55299L14.7962 5.24371C14.1211 5.4818 13.6672 6.12525 13.6672 6.84724V22.0452C13.6672 22.9759 14.4147 23.7334 15.3336 23.7334C15.5137 23.7334 15.6824 23.7081 15.8649 23.6512L20.8738 21.9589C21.5477 21.7221 22.0015 21.0777 22.0015 20.3569V5.15899C22.0015 4.0471 20.9226 3.20607 19.8038 3.55299Z" fill="#29AFBD"/>
</svg>
