<svg width="37" height="40" viewBox="0 0 37 40" fill="none" xmlns="http://www.w3.org/2000/svg">
<path d="M0 15.0567V7.64069C0.152905 7.59967 0.305809 7.5227 0.459297 7.5227C3.18182 7.5154 5.90434 7.5227 8.62977 7.5154C9.88102 7.51203 11.0955 7.69911 12.2295 8.20868C15.4358 9.64975 17.2706 12.0706 17.4883 15.4775C17.6243 17.604 17.5233 19.7445 17.5309 21.8783C17.5268 22.0475 17.5387 22.2168 17.5665 22.3839C17.6102 22.5973 17.7297 22.7893 17.9045 22.927C18.0792 23.0646 18.2984 23.1394 18.5242 23.1385C18.7498 23.1323 18.9658 23.0494 19.134 22.9047C19.3022 22.7599 19.4118 22.5625 19.4434 22.3474C19.4643 22.1896 19.4733 22.0306 19.4702 21.8716C19.4702 17.2096 19.4702 12.5478 19.4702 7.8862V7.52832C19.5765 7.5227 19.6342 7.51709 19.6914 7.51709C22.5511 7.51709 25.4108 7.49798 28.2704 7.52607C32.4286 7.56709 35.8363 10.2155 36.7911 14.1095C36.8722 14.4409 36.9311 14.7775 37 15.1118V24.2705C36.8372 24.3115 36.6749 24.3885 36.5121 24.3885C33.4384 24.3956 30.3648 24.3956 27.2911 24.3885C27.0618 24.3885 26.9567 24.4447 26.8826 24.6694C25.5409 28.8775 21.1119 31.4056 16.6625 30.4399C13.3634 29.723 11.1895 27.7431 10.1115 24.6588C10.0468 24.4722 9.98024 24.3778 9.75613 24.3857C9.26999 24.4031 8.78326 24.3896 8.29712 24.393C8.19355 24.402 8.09065 24.417 7.98897 24.438C8.25568 25.1402 8.4652 25.8139 8.75992 26.451C10.7383 30.7174 15.6891 33.2259 20.4087 32.3377C23.9763 31.6635 26.557 29.7236 28.1706 26.5942C28.3037 26.3363 28.4578 26.2448 28.7507 26.2459C30.871 26.256 32.9912 26.2515 35.112 26.2515C35.4529 26.2515 35.7931 26.2442 36.1333 26.2549C36.4006 26.2639 36.4958 26.3942 36.4252 26.6448C36.3259 26.9965 36.2261 27.3487 36.1071 27.6943C33.3671 35.6401 25.6139 40.5981 16.9391 39.9419C13.9488 39.7172 11.1679 38.8396 8.65195 37.2727C3.84149 34.2775 1.01178 30.0445 0.162826 24.5739C0.109718 24.2284 0.0542753 23.8829 0 23.5402V17.0231C0.131895 16.9792 0.262622 16.9051 0.396852 16.8972C0.716084 16.8781 1.03882 16.891 1.35863 16.891C4.04322 16.891 6.72255 16.8865 9.4048 16.8972C9.68493 16.8972 9.75496 16.8101 9.73571 16.5601C9.68201 15.7365 9.07973 15.1708 8.21833 15.1696C5.63354 15.1696 3.04875 15.1696 0.463966 15.164C0.308727 15.1606 0.154655 15.0915 0 15.0567ZM28.2395 17.1798C28.5792 17.1798 28.9188 17.1798 29.2579 17.1798C29.433 17.1798 29.5304 17.1113 29.5275 16.9304C29.5228 16.6129 29.5392 16.2944 29.5199 15.9781C29.475 15.2432 28.8885 14.7196 28.1222 14.714C27.8304 14.714 27.5386 14.7219 27.2468 14.714C27.0326 14.7056 26.9521 14.7882 26.955 14.9949C26.9616 15.6298 26.9616 16.2646 26.955 16.8995C26.955 17.1051 27.0408 17.1882 27.2468 17.1843C27.58 17.1742 27.9098 17.1781 28.2395 17.1781V17.1798Z" fill="#29AFBD"/>
<path d="M25.0367 0C25.1319 0.0331473 25.2258 0.0730365 25.3239 0.099442C26.8412 0.504514 27.7598 1.87423 27.5416 3.41418C27.3466 4.79962 26.03 5.88899 24.5284 5.89461C22.9247 5.90079 21.3186 5.89461 19.7172 5.89461H19.4907V3.77936H21.503C21.503 3.29451 21.4283 2.83438 21.517 2.40571C21.7779 1.13825 22.6002 0.353946 23.911 0.052811C23.9569 0.0387821 24.0016 0.0211183 24.0446 0L25.0367 0ZM24.5179 3.77037C24.6869 3.76848 24.8516 3.7186 24.9913 3.62697C25.131 3.53534 25.2395 3.40605 25.3032 3.2553C25.3669 3.10456 25.3829 2.93907 25.3493 2.77959C25.3156 2.62011 25.2339 2.47374 25.1142 2.35882C24.9945 2.24391 24.8422 2.16557 24.6765 2.13363C24.5107 2.10169 24.3388 2.11756 24.1824 2.17927C24.026 2.24098 23.892 2.34577 23.7972 2.4805C23.7024 2.61523 23.651 2.7739 23.6495 2.93663C23.6497 3.15761 23.7409 3.3695 23.9031 3.52581C24.0654 3.68212 24.2854 3.77007 24.515 3.77037H24.5179Z" fill="#F7A506"/>
<path d="M14.3727 0.168298C15.3321 0.164265 16.2538 0.52716 16.9353 1.17719C17.6168 1.82723 18.0022 2.71119 18.0068 3.63472C18.0203 5.54828 16.3914 7.12699 14.3996 7.1298C13.9133 7.1493 13.4279 7.07416 12.9725 6.90886C12.517 6.74356 12.1009 6.49151 11.7491 6.1678C11.3972 5.84408 11.1168 5.45535 10.9246 5.02487C10.7324 4.59439 10.6324 4.13101 10.6306 3.66247C10.6288 3.19393 10.7252 2.72985 10.9141 2.29801C11.1029 1.86617 11.3803 1.47544 11.7297 1.14922C12.0791 0.822996 12.4932 0.56798 12.9474 0.399433C13.4015 0.230886 13.8863 0.152273 14.3727 0.168298Z" fill="#F7A506"/>
</svg>
