<svg width="34" height="31" viewBox="0 0 34 31" fill="none" xmlns="http://www.w3.org/2000/svg">
<path d="M31.4691 25.4622H6.11707L0.333313 30.4675V2.69336C0.333313 1.4462 1.31734 0.435303 2.53092 0.435303H31.4691C32.6826 0.435303 33.6667 1.4462 33.6667 2.69336V23.2037C33.6667 24.4509 32.6826 25.4622 31.4691 25.4622Z" fill="#FF005C"/>
<path d="M24.979 11.7416C24.979 9.53368 23.1286 7.73779 20.8537 7.73779H18.9704C18.4913 7.73779 18.1024 8.11494 18.1024 8.58028V15.9942C18.1024 16.4592 18.4913 16.8367 18.9704 16.8367H20.8537C23.1283 16.8367 24.979 15.0405 24.979 12.8325V11.7416ZM23.2429 12.8325C23.2429 14.1114 22.171 15.1517 20.8537 15.1517H19.8385V9.42277H20.8537C22.171 9.42277 23.2429 10.4627 23.2429 11.7416V12.8325Z" fill="white"/>
<path d="M9.80048 13.6073L9.06636 15.7254C8.91343 16.1664 9.15757 16.6443 9.61195 16.7927C10.067 16.9411 10.5587 16.7038 10.7116 16.2628L11.2535 14.6999H13.665L14.2069 16.2628C14.3286 16.6146 14.6667 16.8368 15.0295 16.8368C15.1214 16.8368 15.2147 16.8226 15.3062 16.7927C15.7606 16.6443 16.0051 16.1664 15.8521 15.7254L13.2819 8.31142C13.1632 7.96849 12.8319 7.73779 12.4592 7.73779C12.0866 7.73779 11.7553 7.96849 11.6366 8.31142L9.80116 13.6057C9.80082 13.6063 9.80048 13.6067 9.80048 13.6073V13.6073ZM12.4592 11.222L13.0808 13.0149H11.8377L12.4592 11.222Z" fill="white"/>
<path d="M22.9868 20.106C22.8254 20.2626 22.7325 20.4802 22.7325 20.7017C22.7325 20.9241 22.8254 21.1407 22.9868 21.2974C23.1485 21.454 23.3723 21.5442 23.6005 21.5442C23.8291 21.5442 24.0529 21.454 24.2143 21.2974C24.3757 21.1407 24.4686 20.9232 24.4686 20.7017C24.4686 20.4802 24.3757 20.2626 24.2143 20.106C24.0529 19.9493 23.8291 19.8591 23.6005 19.8591C23.3723 19.8591 23.1482 19.9493 22.9868 20.106Z" fill="white"/>
</svg>
